<svg id="visual" viewBox="0 0 900 600" width="900" height="600" xmlns="http://www.w3.org/2000/svg" xmlns:xlink="http://www.w3.org/1999/xlink" version="1.1"><g stroke-width="1" stroke-linejoin="bevel"><path d="M472 338L404 309L383 385Z" fill="#f4ced9" stroke="#f4ced9"></path><path d="M383 385L537 391L472 338Z" fill="#8ac2ec" stroke="#8ac2ec"></path><path d="M319 275L315 414L383 385Z" fill="#f0cbdc" stroke="#f0cbdc"></path><path d="M383 385L537 496L537 391Z" fill="#f0cbdc" stroke="#f0cbdc"></path><path d="M404 309L319 275L383 385Z" fill="#bec2ee" stroke="#bec2ee"></path><path d="M470 194L404 309L472 338Z" fill="#f6d2d7" stroke="#f6d2d7"></path><path d="M470 194L410 212L404 309Z" fill="#d8c4e8" stroke="#d8c4e8"></path><path d="M404 309L410 212L319 275Z" fill="#f6d2d7" stroke="#f6d2d7"></path><path d="M315 414L317 484L383 385Z" fill="#8ac2ec" stroke="#8ac2ec"></path><path d="M599 279L470 194L472 338Z" fill="#e2c6e4" stroke="#e2c6e4"></path><path d="M408 111L332 206L410 212Z" fill="#9dc2ef" stroke="#9dc2ef"></path><path d="M410 212L332 206L319 275Z" fill="#eac8e0" stroke="#eac8e0"></path><path d="M422 536L537 496L383 385Z" fill="#ccc3eb" stroke="#ccc3eb"></path><path d="M317 484L422 536L383 385Z" fill="#9dc2ef" stroke="#9dc2ef"></path><path d="M537 496L604 419L537 391Z" fill="#d8c4e8" stroke="#d8c4e8"></path><path d="M537 391L599 279L472 338Z" fill="#9dc2ef" stroke="#9dc2ef"></path><path d="M604 419L599 279L537 391Z" fill="#ccc3eb" stroke="#ccc3eb"></path><path d="M231 191L221 282L319 275Z" fill="#bec2ee" stroke="#bec2ee"></path><path d="M319 275L221 282L315 414Z" fill="#f0cbdc" stroke="#f0cbdc"></path><path d="M315 414L165 494L317 484Z" fill="#eac8e0" stroke="#eac8e0"></path><path d="M483 102L408 111L470 194Z" fill="#e2c6e4" stroke="#e2c6e4"></path><path d="M470 194L408 111L410 212Z" fill="#f4ced9" stroke="#f4ced9"></path><path d="M332 206L231 191L319 275Z" fill="#d8c4e8" stroke="#d8c4e8"></path><path d="M365 600L462 600L422 536Z" fill="#f0cbdc" stroke="#f0cbdc"></path><path d="M422 536L462 600L537 496Z" fill="#e2c6e4" stroke="#e2c6e4"></path><path d="M662 471L682 362L604 419Z" fill="#e2c6e4" stroke="#e2c6e4"></path><path d="M221 282L175 379L315 414Z" fill="#bec2ee" stroke="#bec2ee"></path><path d="M317 484L365 600L422 536Z" fill="#ccc3eb" stroke="#ccc3eb"></path><path d="M275 600L365 600L317 484Z" fill="#f6d2d7" stroke="#f6d2d7"></path><path d="M275 83L231 191L332 206Z" fill="#d8c4e8" stroke="#d8c4e8"></path><path d="M221 282L79 320L175 379Z" fill="#bec2ee" stroke="#bec2ee"></path><path d="M662 471L604 419L631 521Z" fill="#8ac2ec" stroke="#8ac2ec"></path><path d="M604 419L682 362L599 279Z" fill="#aec2ef" stroke="#aec2ef"></path><path d="M610 120L483 102L470 194Z" fill="#8ac2ec" stroke="#8ac2ec"></path><path d="M636 180L470 194L599 279Z" fill="#8ac2ec" stroke="#8ac2ec"></path><path d="M631 521L604 419L537 496Z" fill="#f6d2d7" stroke="#f6d2d7"></path><path d="M592 600L631 521L537 496Z" fill="#ccc3eb" stroke="#ccc3eb"></path><path d="M679 190L636 180L599 279Z" fill="#d8c4e8" stroke="#d8c4e8"></path><path d="M165 494L275 600L317 484Z" fill="#aec2ef" stroke="#aec2ef"></path><path d="M175 379L165 494L315 414Z" fill="#9dc2ef" stroke="#9dc2ef"></path><path d="M462 600L592 600L537 496Z" fill="#8ac2ec" stroke="#8ac2ec"></path><path d="M631 521L680 600L662 471Z" fill="#9dc2ef" stroke="#9dc2ef"></path><path d="M636 180L610 120L470 194Z" fill="#eac8e0" stroke="#eac8e0"></path><path d="M79 320L135 436L175 379Z" fill="#e2c6e4" stroke="#e2c6e4"></path><path d="M175 379L135 436L165 494Z" fill="#d8c4e8" stroke="#d8c4e8"></path><path d="M737 334L679 190L599 279Z" fill="#f4ced9" stroke="#f4ced9"></path><path d="M636 180L697 106L610 120Z" fill="#d8c4e8" stroke="#d8c4e8"></path><path d="M408 111L275 83L332 206Z" fill="#eac8e0" stroke="#eac8e0"></path><path d="M419 0L275 83L408 111Z" fill="#aec2ef" stroke="#aec2ef"></path><path d="M799 423L737 334L682 362Z" fill="#f4ced9" stroke="#f4ced9"></path><path d="M682 362L737 334L599 279Z" fill="#ccc3eb" stroke="#ccc3eb"></path><path d="M799 423L682 362L662 471Z" fill="#9dc2ef" stroke="#9dc2ef"></path><path d="M165 494L204 600L275 600Z" fill="#ccc3eb" stroke="#ccc3eb"></path><path d="M136 600L204 600L165 494Z" fill="#aec2ef" stroke="#aec2ef"></path><path d="M275 83L178 133L231 191Z" fill="#f0cbdc" stroke="#f0cbdc"></path><path d="M231 191L69 191L221 282Z" fill="#ccc3eb" stroke="#ccc3eb"></path><path d="M69 191L79 320L221 282Z" fill="#f6d2d7" stroke="#f6d2d7"></path><path d="M62 468L136 600L165 494Z" fill="#9dc2ef" stroke="#9dc2ef"></path><path d="M592 600L680 600L631 521Z" fill="#bec2ee" stroke="#bec2ee"></path><path d="M507 0L419 0L483 102Z" fill="#aec2ef" stroke="#aec2ef"></path><path d="M483 102L419 0L408 111Z" fill="#e2c6e4" stroke="#e2c6e4"></path><path d="M275 83L214 0L178 133Z" fill="#f0cbdc" stroke="#f0cbdc"></path><path d="M610 120L507 0L483 102Z" fill="#bec2ee" stroke="#bec2ee"></path><path d="M639 0L507 0L610 120Z" fill="#f6d2d7" stroke="#f6d2d7"></path><path d="M806 101L697 106L679 190Z" fill="#f0cbdc" stroke="#f0cbdc"></path><path d="M679 190L697 106L636 180Z" fill="#8ac2ec" stroke="#8ac2ec"></path><path d="M62 468L165 494L135 436Z" fill="#bec2ee" stroke="#bec2ee"></path><path d="M79 320L62 468L135 436Z" fill="#f0cbdc" stroke="#f0cbdc"></path><path d="M837 475L799 423L662 471Z" fill="#f4ced9" stroke="#f4ced9"></path><path d="M737 334L798 271L679 190Z" fill="#d8c4e8" stroke="#d8c4e8"></path><path d="M799 423L798 271L737 334Z" fill="#e2c6e4" stroke="#e2c6e4"></path><path d="M419 0L281 0L275 83Z" fill="#eac8e0" stroke="#eac8e0"></path><path d="M178 133L69 191L231 191Z" fill="#e2c6e4" stroke="#e2c6e4"></path><path d="M79 320L0 360L62 468Z" fill="#f0cbdc" stroke="#f0cbdc"></path><path d="M92 139L69 191L178 133Z" fill="#e2c6e4" stroke="#e2c6e4"></path><path d="M118 0L92 139L178 133Z" fill="#d8c4e8" stroke="#d8c4e8"></path><path d="M281 0L214 0L275 83Z" fill="#f6d2d7" stroke="#f6d2d7"></path><path d="M662 0L639 0L697 106Z" fill="#d8c4e8" stroke="#d8c4e8"></path><path d="M697 106L639 0L610 120Z" fill="#f0cbdc" stroke="#f0cbdc"></path><path d="M798 271L821 228L679 190Z" fill="#f4ced9" stroke="#f4ced9"></path><path d="M900 324L821 228L798 271Z" fill="#9dc2ef" stroke="#9dc2ef"></path><path d="M0 290L0 360L79 320Z" fill="#ccc3eb" stroke="#ccc3eb"></path><path d="M62 468L0 600L136 600Z" fill="#f0cbdc" stroke="#f0cbdc"></path><path d="M823 0L662 0L697 106Z" fill="#aec2ef" stroke="#aec2ef"></path><path d="M0 185L0 290L69 191Z" fill="#ccc3eb" stroke="#ccc3eb"></path><path d="M69 191L0 290L79 320Z" fill="#e2c6e4" stroke="#e2c6e4"></path><path d="M805 600L837 475L662 471Z" fill="#e2c6e4" stroke="#e2c6e4"></path><path d="M799 423L900 324L798 271Z" fill="#d8c4e8" stroke="#d8c4e8"></path><path d="M0 360L0 465L62 468Z" fill="#ccc3eb" stroke="#ccc3eb"></path><path d="M680 600L805 600L662 471Z" fill="#9dc2ef" stroke="#9dc2ef"></path><path d="M0 80L0 185L92 139Z" fill="#9dc2ef" stroke="#9dc2ef"></path><path d="M92 139L0 185L69 191Z" fill="#8ac2ec" stroke="#8ac2ec"></path><path d="M821 228L806 101L679 190Z" fill="#f0cbdc" stroke="#f0cbdc"></path><path d="M214 0L118 0L178 133Z" fill="#f6d2d7" stroke="#f6d2d7"></path><path d="M900 403L799 423L837 475Z" fill="#8ac2ec" stroke="#8ac2ec"></path><path d="M900 403L900 324L799 423Z" fill="#8ac2ec" stroke="#8ac2ec"></path><path d="M821 228L900 176L806 101Z" fill="#9dc2ef" stroke="#9dc2ef"></path><path d="M900 477L900 403L837 475Z" fill="#f4ced9" stroke="#f4ced9"></path><path d="M0 465L0 600L62 468Z" fill="#8ac2ec" stroke="#8ac2ec"></path><path d="M900 600L900 477L837 475Z" fill="#f4ced9" stroke="#f4ced9"></path><path d="M118 0L0 80L92 139Z" fill="#ccc3eb" stroke="#ccc3eb"></path><path d="M900 324L900 176L821 228Z" fill="#d8c4e8" stroke="#d8c4e8"></path><path d="M900 66L823 0L806 101Z" fill="#d8c4e8" stroke="#d8c4e8"></path><path d="M806 101L823 0L697 106Z" fill="#eac8e0" stroke="#eac8e0"></path><path d="M805 600L900 600L837 475Z" fill="#f0cbdc" stroke="#f0cbdc"></path><path d="M118 0L0 0L0 80Z" fill="#d8c4e8" stroke="#d8c4e8"></path><path d="M900 176L900 66L806 101Z" fill="#9dc2ef" stroke="#9dc2ef"></path><path d="M900 66L900 0L823 0Z" fill="#8ac2ec" stroke="#8ac2ec"></path></g></svg>